<?xml version="1.0" encoding="utf-8"?>
<!-- Generator: Adobe Illustrator 19.0.0, SVG Export Plug-In . SVG Version: 6.00 Build 0)  -->
<svg version="1.1" id="Capa_1" xmlns="http://www.w3.org/2000/svg" xmlns:xlink="http://www.w3.org/1999/xlink" x="0px" y="0px"
	 viewBox="-462 263.7 34.3 34.3" style="enable-background:new -462 263.7 34.3 34.3;" xml:space="preserve">
<style type="text/css">
	.st0{opacity:0.3;}
	.st1{fill:#010002;}
</style>
<g class="st0">
	<path class="st1" d="M-434.9,276h-2l0-1.3c1.7-0.8,2.6-2.2,2.6-4.1c0-2.2-1.9-4.1-4.3-4.1c-0.8,0-1.6,0.3-2.3,0.7
		c-0.7-1.2-2.1-2-3.6-2c-0.5,0-1,0.1-1.5,0.3c-0.9-1.1-2.3-1.9-3.8-1.9c-2.2,0-4.1,1.5-4.6,3.6c-0.5,0-1,0.1-1.5,0.2
		c-0.5,0.2-0.8,0.8-0.6,1.3c0.2,0.5,0.8,0.8,1.3,0.6c0.4-0.1,0.9-0.1,1.4,0c0.3,0.1,0.6,0,0.9-0.2c0.3-0.2,0.4-0.5,0.4-0.8
		c0-1.5,1.2-2.7,2.7-2.7c1.1,0,2.1,0.7,2.5,1.6c0.1,0.3,0.4,0.5,0.7,0.6c0.3,0.1,0.6,0,0.9-0.2c0.4-0.3,0.8-0.4,1.2-0.4
		c1.1,0,2.1,0.9,2.1,2.1c0,0.5,0.3,0.9,0.8,1c0.5,0.1,0.9-0.1,1.2-0.6c0.4-0.8,1-1.2,1.8-1.2c1.2,0,2.2,0.9,2.2,2
		c0,1.2-0.5,1.9-1.8,2.4h-3.4c-0.6,0-1,0.5-1,1v5.8c0,0.3-0.1,0.5-0.4,0.5s-0.4-0.2-0.4-0.5c0-0.6,0-1.4,0-2.2c0-1.5,0-3,0-3.6
		c0-0.6-0.5-1-1-1h-10.1c-1.3,0-2-0.6-2-1.7c0-0.2,0-0.4,0.1-0.6c0.2-0.5-0.1-1.1-0.6-1.3c-0.5-0.2-1.1,0.1-1.3,0.7
		c-0.1,0.4-0.2,0.8-0.2,1.3c0,1.9,1.1,3.3,3,3.7l-0.4,17.5c-0.9,0.4-1.5,1.5-1.5,2.7c0,1.6,1.1,2.9,2.5,2.9h17.5
		c1.4,0,2.5-1.3,2.5-2.9c0-1.2-0.6-2.2-1.5-2.7l0-0.7h1.6c2.1,0,3.9-1.7,3.9-3.9v-8C-431.1,277.7-432.8,276-434.9,276z
		 M-437.6,295.9H-455c-0.2,0-0.5-0.3-0.5-0.8s0.3-0.8,0.5-0.8c0.6,0,1-0.5,1-1l0,0c0,0,0-0.1,0-0.1l0.4-18.1h8.1c0,0.7,0,1.7,0,2.6
		c0,0.8,0,1.5,0,2.2c0,1.7,1.3,2.5,2.5,2.5c1.2,0,2.5-0.9,2.5-2.5v-4.7h1.5l0.4,17.1h-9c-0.6,0-1,0.5-1,1s0.5,1,1,1h10.1
		c0.2,0,0.5,0.3,0.5,0.8S-437.4,295.9-437.6,295.9z M-433.1,287.9c0,1-0.8,1.8-1.8,1.8h-1.7l-0.3-11.7h2c1,0,1.8,0.8,1.8,1.8V287.9z
		"/>
	<path class="st1" d="M-450.2,292.2h-0.9c-0.6,0-1,0.5-1,1s0.5,1,1,1h0.9c0.6,0,1-0.5,1-1C-449.2,292.7-449.7,292.2-450.2,292.2z"/>
</g>
</svg>
