<svg xmlns="http://www.w3.org/2000/svg" viewBox="0 0 500 139"><style type="text/css">  
	.st0{fill:#F5F5F5;}
</style><path class="st0" d="M57.6 18.8v20.3H42v81.1H15.6V39.1H0V18.8H57.6z"/><path class="st0" d="M124.3 18.8v101.4H97.9V77.6H90v42.6H63.6V18.8H90v36.3h7.9V18.8H124.3z"/><path class="st0" d="M134.9 18.8h44v20.3h-17.6v19.2h16.5v19.3h-16.5v22.3h19.4v20.3h-45.7V18.8z"/><path class="st0" d="M210.8 18.8h19.7c12.7 0 21.4 0.6 25.8 1.8 4.5 1.2 7.9 3.1 10.2 5.8 2.3 2.7 3.8 5.6 4.4 8.9 0.6 3.3 0.9 9.7 0.9 19.3v35.5c0 9.1-0.4 15.2-1.3 18.3s-2.3 5.5-4.5 7.2 -4.8 2.9-7.9 3.6c-3.1 0.7-7.9 1-14.2 1h-33.3V18.8zM237.2 36.1v66.7c3.8 0 6.1-0.8 7-2.3 0.9-1.5 1.3-5.7 1.3-12.4V48.7c0-4.6-0.1-7.5-0.4-8.8 -0.3-1.3-1-2.2-2-2.9C242 36.4 240 36.1 237.2 36.1z"/><path class="st0" d="M327.3 18.8l15.1 101.4h-27L314 102h-9.4l-1.6 18.2h-27.3l13.5-101.4H327.3zM313.3 84c-1.3-11.5-2.7-25.7-4-42.6 -2.7 19.4-4.4 33.6-5.1 42.6H313.3z"/><path class="st0" d="M407.4 56.1H381v-9.2c0-5.8-0.3-9.4-0.8-10.9 -0.5-1.5-1.7-2.2-3.6-2.2 -1.6 0-2.7 0.6-3.3 1.9s-0.9 4.5-0.9 9.6V94c0 4.6 0.3 7.5 0.9 9s1.8 2.2 3.5 2.2c1.9 0 3.2-0.8 3.9-2.4 0.7-1.6 1-4.8 1-9.5v-12h-5.3V65.8h30.9v54.4h-16.6l-2.4-7.3c-1.8 3.1-4.1 5.5-6.8 7 -2.7 1.6-6 2.3-9.7 2.3 -4.4 0-8.6-1.1-12.4-3.2 -3.9-2.2-6.8-4.8-8.8-8 -2-3.2-3.3-6.5-3.8-10 -0.5-3.5-0.8-8.7-0.8-15.7V55.3c0-9.7 0.5-16.7 1.6-21.1 1-4.4 4-8.4 9-12.1 4.9-3.7 11.3-5.5 19.2-5.5 7.7 0 14.1 1.6 19.2 4.8 5.1 3.2 8.4 6.9 10 11.3 1.5 4.4 2.3 10.7 2.3 19V56.1z"/><path class="st0" d="M473.4 49.5h-24.5V42c0-3.5-0.3-5.7-0.9-6.7 -0.6-1-1.7-1.4-3.1-1.4 -1.6 0-2.8 0.6-3.6 1.9 -0.8 1.3-1.2 3.3-1.2 5.9 0 3.4 0.5 5.9 1.4 7.6 0.9 1.7 3.4 3.8 7.5 6.2 11.7 7 19.1 12.7 22.2 17.2s4.6 11.7 4.6 21.6c0 7.2-0.8 12.5-2.5 16 -1.7 3.4-5 6.3-9.8 8.6 -4.8 2.3-10.5 3.5-16.9 3.5 -7.1 0-13.1-1.3-18.1-4s-8.3-6.1-9.8-10.2c-1.5-4.1-2.3-10-2.3-17.6v-6.6h24.5v12.3c0 3.8 0.3 6.2 1 7.3 0.7 1.1 1.9 1.6 3.7 1.6s3.1-0.7 3.9-2.1 1.3-3.4 1.3-6.1c0-6-0.8-9.9-2.4-11.7 -1.7-1.8-5.8-4.9-12.3-9.2 -6.6-4.3-10.9-7.5-13-9.5 -2.1-2-3.9-4.7-5.3-8.1 -1.4-3.5-2.1-7.9-2.1-13.3 0-7.8 1-13.4 3-17 2-3.6 5.2-6.4 9.6-8.4 4.4-2 9.8-3 16-3 6.8 0 12.7 1.1 17.5 3.3 4.8 2.2 8 5 9.6 8.4 1.6 3.4 2.3 9.1 2.3 17.1V49.5z"/><path class="st0" d="M500 99.5v20.7h-19.1V99.5H500z"/><rect class="st0" width="500" height="11"/><rect y="128" class="st0" width="500" height="11"/></svg>