<svg xmlns="http://www.w3.org/2000/svg" xmlns:xlink="http://www.w3.org/1999/xlink" xmlns:sketch="http://www.bohemiancoding.com/sketch/ns" viewBox="0 0 100 125" version="1.1" x="0px" y="0px"><title>fish-and-chips</title><desc>Created with Sketch.</desc><g stroke="none" stroke-width="1" fill="none" fill-rule="evenodd" sketch:type="MSPage"><g sketch:type="MSArtboardGroup" fill="#000000"><path d="M84.6216,58.5784 C84.4266,59.3894 84.1486,60.0004 83.8196,61.0004 L78.9996,61.0004 L78.9996,57.0004 L80.9996,57.0004 L84.9086,57.0004 C84.8456,57.0004 84.7586,58.0104 84.6216,58.5784 L84.6216,58.5784 L84.6216,58.5784 Z M81.9396,64.4144 C81.2686,65.3434 80.4956,66.0004 79.6306,67.0004 L78.9996,67.0004 L78.9996,63.0004 L82.8566,63.0004 C82.5796,63.0004 82.2746,63.9504 81.9396,64.4144 L81.9396,64.4144 L81.9396,64.4144 Z M70.9996,71.3564 L70.9996,69.0004 L77.0046,69.0004 C75.2866,70.0004 73.2936,70.6984 70.9996,71.3564 L70.9996,71.3564 L70.9996,71.3564 Z M76.9996,67.0004 L70.9996,67.0004 L70.9996,63.0004 L76.9996,63.0004 L76.9996,67.0004 L76.9996,67.0004 Z M70.9996,57.0004 L76.9996,57.0004 L76.9996,61.0004 L70.9996,61.0004 L70.9996,57.0004 L70.9996,57.0004 Z M67.9996,53.0004 C67.9996,51.8914 68.8896,51.0004 70.0006,51.0004 L72.0076,51.0004 L80.9996,51.0004 C82.1036,51.0004 82.9996,51.8974 82.9996,53.0004 C82.9996,54.1084 82.1106,55.0004 80.9996,55.0004 L70.0006,55.0004 C68.8966,55.0004 67.9996,54.1024 67.9996,53.0004 L67.9996,53.0004 L67.9996,53.0004 Z M68.9996,61.0004 L62.9996,61.0004 L62.9996,57.0004 L68.9996,57.0004 L68.9996,61.0004 L68.9996,61.0004 Z M68.9996,67.0004 L62.9996,67.0004 L62.9996,63.0004 L68.9996,63.0004 L68.9996,67.0004 L68.9996,67.0004 Z M68.9996,71.8564 C67.1726,72.2494 65.1716,72.5084 62.9996,72.6344 L62.9996,69.0004 L68.9996,69.0004 L68.9996,71.8564 L68.9996,71.8564 Z M51.0006,55.0004 C49.8966,55.0004 48.9996,54.1024 48.9996,53.0004 C48.9996,51.8914 49.8896,51.0004 51.0006,51.0004 L59.9926,51.0004 L61.9996,51.0004 C63.1036,51.0004 63.9996,51.8974 63.9996,53.0004 C63.9996,54.1084 63.1106,55.0004 61.9996,55.0004 L51.0006,55.0004 L51.0006,55.0004 Z M60.9996,61.0004 L54.9996,61.0004 L54.9996,57.0004 L60.9996,57.0004 L60.9996,61.0004 L60.9996,61.0004 Z M54.9996,67.0004 L54.9996,63.0004 L60.9996,63.0004 L60.9996,67.0004 L54.9996,67.0004 Z M54.9996,72.9999999 L54.9996,69.0004 L60.9996,69.0004 L60.9996,72.8012695 C57.9996,72.9999999 54.9996,72.9999999 54.9996,72.9999999 Z M52.9996,61.0004 L46.9996,61.0004 L46.9996,57.0004 L51.0006,57.0004 L52.9996,57.0004 L52.9996,61.0004 L52.9996,61.0004 Z M52.9996,67.0004 L46.9996,67.0004 L46.9996,63.0004 L52.9996,63.0004 L52.9996,67.0004 L52.9996,67.0004 Z M52.9996,73.0004 L46.9996,73.0004 L46.9996,69.0004 L52.9996,69.0004 L52.9996,73.0004 L52.9996,73.0004 Z M44.9996,61.0004 L38.9996,61.0004 L38.9996,57.0004 L44.9996,57.0004 L44.9996,61.0004 L44.9996,61.0004 Z M44.9996,67.0004 L38.9996,67.0004 L38.9996,63.0004 L44.9996,63.0004 L44.9996,67.0004 L44.9996,67.0004 Z M44.9996,72.9999999 C44.9996,72.9999999 41.9996,72.9999999 38.9996,72.8000031 L38.9996,69.0004 L44.9996,69.0004 L44.9996,72.9999999 Z M36.9996,61.0004 L30.9996,61.0004 L30.9996,57.0004 L36.9996,57.0004 L36.9996,61.0004 L36.9996,61.0004 Z M36.9996,67.0004 L30.9996,67.0004 L30.9996,63.0004 L36.9996,63.0004 L36.9996,67.0004 L36.9996,67.0004 Z M36.9996,72.6344 C34.8286,72.5084 32.8276,72.2494 30.9996,71.8564 L30.9996,69.0004 L36.9996,69.0004 L36.9996,72.6344 L36.9996,72.6344 Z M30.2806,54.8904 L34.4916,49.6274 C34.5056,49.6084 34.5816,49.5974 34.6106,49.6174 L35.8576,50.4484 L32.1336,55.0004 L30.3686,55.0004 L30.2806,54.8904 L30.2806,54.8904 Z M42.1686,45.6344 C42.1866,45.6114 42.2556,45.6004 42.2806,45.6174 L43.5436,46.4584 L41.7266,48.7604 C41.6826,48.8074 41.6336,48.8484 41.5936,48.8994 L36.8006,55.0004 L34.8396,55.0004 L42.1686,45.6344 L42.1686,45.6344 Z M44.5376,50.9554 L41.3016,55.0004 L39.3486,55.0004 L43.2016,50.1194 C43.2306,50.1094 43.2636,50.1054 43.2806,50.1174 L44.5376,50.9554 L44.5376,50.9554 Z M65.4446,51.0004 L66.5526,51.0004 C66.2106,51.5904 65.9996,52.2674 65.9996,53.0004 C65.9996,53.7324 66.2116,54.4094 66.5556,55.0004 L65.4476,55.0004 C65.7896,54.4094 65.9996,53.7324 65.9996,53.0004 C65.9996,52.2684 65.7886,51.5904 65.4446,51.0004 L65.4446,51.0004 L65.4446,51.0004 Z M59.9926,45.0004 L72.0076,45.0004 C73.1056,45.0004 73.9996,45.8964 73.9996,47.0004 C73.9996,48.0994 73.0996,49.0004 72.0076,49.0004 L70.0006,49.0004 L61.9996,49.0004 L59.9926,49.0004 C58.8936,49.0004 57.9996,48.1034 57.9996,47.0004 C57.9996,45.9004 58.9006,45.0004 59.9926,45.0004 L59.9926,45.0004 L59.9926,45.0004 Z M28.9996,61.0004 L22.9996,61.0004 L22.9996,57.0004 L28.9996,57.0004 L28.9996,61.0004 L28.9996,61.0004 Z M28.9996,67.0004 L22.9996,67.0004 L22.9996,63.0004 L28.9996,63.0004 L28.9996,67.0004 L28.9996,67.0004 Z M28.9996,71.3564 C26.9076,70.7564 25.0776,69.9574 23.4656,69.0004 L28.9996,69.0004 L28.9996,71.3564 L28.9996,71.3564 Z M16.4066,48.8994 C16.3666,48.8484 16.3176,48.8074 16.2736,48.7604 L14.4566,46.4584 L15.7186,45.6174 C15.7446,45.6004 15.8126,45.6114 15.8306,45.6344 L23.1606,55.0004 L21.1996,55.0004 L16.4066,48.8994 L16.4066,48.8994 Z M20.9996,61.0004 L16.1796,61.0004 C15.8506,60.0004 15.5736,59.3894 15.3786,58.5784 C15.2416,58.0104 15.1536,57.0004 15.0906,57.0004 L20.9996,57.0004 L20.9996,61.0004 L20.9996,61.0004 Z M20.9996,67.0004 L20.3696,67.0004 C19.5046,66.0004 18.7316,65.3434 18.0606,64.4144 C17.7256,63.9504 17.4206,63.0004 17.1436,63.0004 L20.9996,63.0004 L20.9996,67.0004 L20.9996,67.0004 Z M13.4626,50.9554 L14.7186,50.1174 C14.7366,50.1054 14.7696,50.1094 14.7976,50.1194 L18.6516,55.0004 L16.6986,55.0004 L13.4626,50.9554 L13.4626,50.9554 Z M23.3886,49.6174 C23.4186,49.5974 23.4946,49.6084 23.5086,49.6274 L27.7196,54.8904 L27.6316,55.0004 L25.8666,55.0004 L22.1426,50.4484 L23.3886,49.6174 L23.3886,49.6174 Z M86.9996,55.0004 L85.9996,55.0004 L84.4476,55.0004 C84.7896,54.4094 84.9996,53.7324 84.9996,53.0004 C84.9996,50.7934 83.2076,49.0004 80.9996,49.0004 L75.4436,49.0004 C75.7876,48.4094 75.9996,47.7314 75.9996,47.0004 C75.9996,44.7934 74.2116,43.0004 72.0076,43.0004 L59.9926,43.0004 C57.7966,43.0004 55.9996,44.7954 55.9996,47.0004 C55.9996,47.7314 56.2116,48.4094 56.5546,49.0004 L51.0006,49.0004 C48.7846,49.0004 46.9996,50.7884 46.9996,53.0004 C46.9996,53.7324 47.2116,54.4094 47.5556,55.0004 L43.8626,55.0004 L46.1556,52.1334 C46.8686,51.2424 46.6726,49.9744 45.7186,49.3384 L44.4736,48.5084 L45.1716,47.6254 C45.8746,46.7334 45.6686,45.4714 44.7186,44.8384 L43.3906,43.9534 C42.4946,43.3554 41.2566,43.5564 40.5936,44.4024 L37.0936,48.8754 C37.0776,48.8644 35.7206,47.9534 35.7206,47.9534 C34.8306,47.3594 33.5946,47.5464 32.9296,48.3774 L28.9996,53.2894 L25.0706,48.3774 C24.4056,47.5464 23.1696,47.3594 22.2796,47.9534 L20.9506,48.8384 C20.9346,48.8494 17.4066,44.4024 17.4066,44.4024 C16.7436,43.5564 15.5056,43.3554 14.6096,43.9534 L13.2806,44.8384 C12.3316,45.4714 12.1256,46.7334 12.8286,47.6254 L13.5266,48.5084 L12.2806,49.3384 C11.3276,49.9744 11.1316,51.2424 11.8446,52.1334 L14.1366,55.0004 L12.9996,55.0004 L12.0006,55.0004 C11.4386,55.0004 10.9996,55.4474 10.9996,56.0004 C10.9996,56.5564 11.4476,57.0004 12.0006,57.0004 L13.2726,57.0004 C13.1346,57.0004 13.2436,58.1194 13.4336,58.9104 C13.9706,61.1404 14.9366,63.4364 16.4396,65.5174 C20.6996,71.4154 28.3176,75.0004 39.9996,75.0004 L59.9996,75.0004 C71.6826,75.0004 79.3006,71.3474 83.5606,65.4494 C85.0636,63.3684 86.0296,61.2084 86.5656,58.9784 C86.7576,58.1814 86.8676,57.0004 86.9316,57.0004 L87.9996,57.0004 C88.5616,57.0004 88.9996,56.5524 88.9996,56.0004 C88.9996,55.4434 88.5526,55.0004 87.9996,55.0004 L86.9996,55.0004 Z M52.8284,41.3848 C53.2194,40.9938 53.2194,40.3608 52.8284,39.9708 C52.4384,39.5798 51.8044,39.5798 51.4144,39.9708 C51.0234,40.3608 51.0234,40.9938 51.4144,41.3848 C51.8044,41.7758 52.4384,41.7758 52.8284,41.3848 M52.1213,37.8492 C52.5123,37.4582 52.5123,36.8252 52.1213,36.4352 C51.7303,36.0442 51.0973,36.0442 50.7073,36.4352 C50.3163,36.8252 50.3163,37.4582 50.7073,37.8492 C51.0973,38.2402 51.7303,38.2402 52.1213,37.8492 M47.8787,39.2634 C47.4877,39.6544 47.4877,40.2874 47.8787,40.6774 C48.2697,41.0684 48.9027,41.0684 49.2927,40.6774 C49.6837,40.2874 49.6837,39.6544 49.2927,39.2634 C48.9027,38.8724 48.2697,38.8724 47.8787,39.2634 M56.364,42.0919 C56.755,41.7009 56.755,41.0679 56.364,40.6779 C55.973,40.2869 55.34,40.2869 54.95,40.6779 C54.559,41.0679 54.559,41.7009 54.95,42.0919 C55.34,42.4829 55.973,42.4829 56.364,42.0919 M55.6569,38.5563 C56.0479,38.1653 56.0479,37.5323 55.6569,37.1423 C55.2659,36.7513 54.6329,36.7513 54.2429,37.1423 C53.8519,37.5323 53.8519,38.1653 54.2429,38.5563 C54.6329,38.9473 55.2659,38.9473 55.6569,38.5563 M54.9497,33.6066 C54.5587,33.2156 53.9257,33.2156 53.5357,33.6066 C53.1447,33.9976 53.1447,34.6306 53.5357,35.0206 C53.9257,35.4116 54.5587,35.4116 54.9497,35.0206 C55.3407,34.6306 55.3407,33.9976 54.9497,33.6066 M42.9287,41.385 L43.6357,42.092 L44.3427,41.385 L49.2927,36.435 L49.9997,35.728 L55.6567,30.071 L56.3637,29.364 L55.6567,28.657 C54.9257,27.926 53.6857,27.083 52.0307,26.631 C49.2547,25.874 46.3657,26.635 43.6357,29.364 C40.9067,32.093 40.1467,34.983 40.9037,37.759 C41.3547,39.414 42.1987,40.654 42.9287,41.385 L42.9287,41.385 Z M46.8787,36 L43.7297,39.154 C43.3437,38.57 43.0247,37.926 42.8327,37.222 C42.7237,36.821 42.6707,36 42.6487,36 L46.8787,36 L46.8787,36 Z M44.3757,31.497 L46.8787,34 L42.9097,34 C43.1817,33 43.6637,32.342 44.3757,31.497 L44.3757,31.497 Z M47.9997,28.638 L47.9997,32.607 L45.4967,30.104 C46.3417,29.392 46.9997,28.91 47.9997,28.638 L47.9997,28.638 Z M49.9997,28.377 C50.9997,28.398 50.8837,28.452 51.2847,28.561 C51.9887,28.753 52.7107,29.071 53.2957,29.458 L49.9997,32.607 L49.9997,28.377 L49.9997,28.377 Z" sketch:type="MSShapeGroup"/></g></g><text x="0" y="115" fill="#000000" font-size="5px" font-weight="bold" font-family="'Helvetica Neue', Helvetica, Arial-Unicode, Arial, Sans-serif">Created by David Ly</text><text x="0" y="120" fill="#000000" font-size="5px" font-weight="bold" font-family="'Helvetica Neue', Helvetica, Arial-Unicode, Arial, Sans-serif">from the Noun Project</text></svg>